<?xml version="1.0" encoding="utf-8"?>
<!-- Generator: Adobe Illustrator 17.0.0, SVG Export Plug-In . SVG Version: 6.00 Build 0)  -->
<!DOCTYPE svg PUBLIC "-//W3C//DTD SVG 1.1//EN" "http://www.w3.org/Graphics/SVG/1.1/DTD/svg11.dtd">
<svg class="keyframe" version="1.1" id="Capa_1" xmlns="http://www.w3.org/2000/svg" xmlns:xlink="http://www.w3.org/1999/xlink" x="0px" y="0px"
	 width="200px" height="200px" viewBox="0 -50 195 250" enable-background="new 0 0 200 200" xml:space="preserve">

	 <style>
		.keyframe{
			animation: move 2s infinite alternate;
		}
		@keyframes move{
			from{
				transform: translate(0px, 0px);
			}
			to{
				transform: translate(0px, -30px);
			}
		}
		path {
			  stroke-dasharray: 2000;
			  stroke-dashoffset: 1000;
			  animation: dash 5s linear alternate infinite;
			  animation-fill-mode: forwards;
			}

		@keyframes dash {
		  from {
		    stroke-dashoffset: 2000;
		  }
		  to {
		    stroke-dashoffset: 0;
		    fill: #000000;
		    stroke: #000000;
		  }
		}
	</style>


<path d="M185.685,52.878h-6.265V37.215c0-5.181-4.217-9.398-9.398-9.398h-12.531c-5.181,0-9.398,4.217-9.398,9.398v25.061h-7.374
	l-0.689-1.754c-3.321-8.449-11.331-13.909-20.409-13.909h-0.298c-1.297-3.637-4.743-6.265-8.822-6.265
	c-2.415,0-4.599,0.943-6.265,2.443c-1.667-1.504-3.85-2.443-6.265-2.443c-2.415,0-4.599,0.943-6.265,2.443
	c-1.667-1.504-3.85-2.443-6.265-2.443c-2.415,0-4.599,0.943-6.265,2.443c-1.667-1.504-3.85-2.443-6.265-2.443
	c-5.181,0-9.398,4.217-9.398,9.398v12.531h-9.398V37.215c0-5.181-4.217-9.398-9.398-9.398H32.186c-5.181,0-9.398,4.217-9.398,9.398
	v15.663h-6.265c-5.181,0-9.398,4.217-9.398,9.398v31.326c0,5.181,4.217,9.398,9.398,9.398h6.265v15.663
	c0,5.181,4.217,9.398,9.398,9.398h12.531c5.181,0,9.398-4.217,9.398-9.398V93.602h7.105l2.44,7.722
	c0.11,0.351,0.282,0.68,0.507,0.974l8.361,10.817l-5.357,56.281c-0.216,2.246,0.529,4.492,2.049,6.162
	c1.519,1.667,3.681,2.625,5.939,2.625h42.466c2.265,0,4.433-0.962,5.949-2.641c1.519-1.679,2.262-3.931,2.036-6.187l-5.473-54.73
	c-0.06-0.573,0.169-1.137,0.605-1.51l17.189-14.733c1.504-1.291,2.559-2.957,3.202-4.78h6.961v25.061
	c0,5.181,4.217,9.398,9.398,9.398h12.531c5.181,0,9.398-4.217,9.398-9.398V103h6.265c5.181,0,9.398-4.217,9.398-9.398V62.276
	C195.083,57.094,190.867,52.878,185.685,52.878z M110.502,46.613c1.729,0,3.133,1.407,3.133,3.133v15.663v2.797
	c0,1.19-0.583,2.265-1.428,2.891c-0.091,0.063-0.175,0.132-0.273,0.185c-0.166,0.097-0.348,0.15-0.529,0.207
	c-0.2,0.063-0.404,0.107-0.62,0.125c-0.254,0.019-0.501,0-0.746-0.038c-0.182-0.028-0.363-0.05-0.533-0.107
	c-0.251-0.085-0.482-0.222-0.708-0.373c-0.135-0.091-0.282-0.16-0.401-0.269c-0.222-0.204-0.385-0.454-0.539-0.708
	c-0.066-0.11-0.16-0.197-0.213-0.316c-0.172-0.392-0.276-0.821-0.276-1.262V49.745C107.369,48.019,108.773,46.613,110.502,46.613z
	 M97.972,46.613c1.729,0,3.133,1.407,3.133,3.133v18.796c0,1.726-1.403,3.133-3.133,3.133c-1.729,0-3.133-1.407-3.133-3.133V49.745
	C94.839,48.019,96.242,46.613,97.972,46.613z M85.441,46.613c1.729,0,3.133,1.407,3.133,3.133v18.796
	c0,1.726-1.403,3.133-3.133,3.133s-3.133-1.407-3.133-3.133V49.745C82.308,48.019,83.712,46.613,85.441,46.613z M69.778,49.745
	c0-1.726,1.403-3.133,3.133-3.133s3.133,1.407,3.133,3.133v18.796c0,0.442-0.103,0.871-0.279,1.266
	c-0.053,0.119-0.147,0.207-0.213,0.316c-0.153,0.254-0.316,0.501-0.539,0.708c-0.116,0.107-0.263,0.179-0.395,0.266
	c-0.229,0.15-0.46,0.291-0.717,0.376c-0.163,0.056-0.341,0.075-0.514,0.103c-0.251,0.038-0.501,0.06-0.761,0.038
	c-0.213-0.019-0.417-0.063-0.614-0.125c-0.185-0.06-0.367-0.113-0.536-0.21c-0.097-0.05-0.179-0.119-0.266-0.182
	c-0.846-0.627-1.432-1.704-1.432-2.895v-2.794V49.745z M16.523,96.735c-1.729,0-3.133-1.407-3.133-3.133V62.276
	c0-1.726,1.403-3.133,3.133-3.133h6.265v37.592H16.523z M47.849,118.663c0,1.726-1.403,3.133-3.133,3.133H32.186
	c-1.729,0-3.133-1.407-3.133-3.133V99.867V56.01V37.215c0-1.726,1.403-3.133,3.133-3.133h12.531c1.729,0,3.133,1.407,3.133,3.133
	v28.194v25.061V118.663z M54.115,68.541h9.398c0,3.44,1.876,6.419,4.639,8.057c0.169,0.103,0.345,0.188,0.52,0.282
	c0.282,0.144,0.561,0.288,0.855,0.401c0.329,0.132,0.674,0.226,1.021,0.316c0.207,0.053,0.407,0.122,0.62,0.163
	c0.066,0.013,0.122,0.038,0.188,0.05c0.219,0.038,0.435,0.016,0.655,0.038c0.301,0.028,0.592,0.091,0.899,0.091
	c0.091,0,0.175-0.025,0.263-0.028c0.288-0.009,0.567-0.053,0.849-0.085c0.376-0.044,0.746-0.094,1.106-0.182
	c0.269-0.066,0.526-0.157,0.789-0.244c0.351-0.119,0.695-0.251,1.028-0.407c0.254-0.122,0.498-0.26,0.742-0.404
	c0.313-0.188,0.611-0.388,0.902-0.611c0.132-0.1,0.282-0.169,0.407-0.276c0.063-0.053,0.122-0.103,0.182-0.157
	c0.182,0.163,0.395,0.291,0.589,0.439c0.194,0.15,0.382,0.304,0.589,0.439c0.294,0.191,0.611,0.345,0.927,0.504
	c0.21,0.103,0.407,0.222,0.623,0.31c0.363,0.147,0.749,0.251,1.131,0.351c0.194,0.05,0.376,0.125,0.576,0.166
	c0.592,0.116,1.2,0.185,1.826,0.185c0.627,0,1.234-0.069,1.826-0.185c0.204-0.041,0.388-0.116,0.586-0.169
	c0.379-0.103,0.761-0.2,1.121-0.348c0.222-0.091,0.423-0.21,0.636-0.316c0.313-0.157,0.627-0.31,0.918-0.498
	c0.21-0.135,0.398-0.291,0.592-0.442c0.194-0.147,0.404-0.276,0.586-0.439c0.182,0.163,0.392,0.288,0.586,0.439
	c0.197,0.15,0.385,0.31,0.595,0.445c0.291,0.188,0.605,0.341,0.918,0.498c0.213,0.107,0.414,0.226,0.636,0.316
	c0.36,0.147,0.739,0.247,1.121,0.348c0.197,0.053,0.385,0.128,0.586,0.169c0.589,0.113,1.197,0.182,1.823,0.182
	c0.627,0,1.234-0.069,1.826-0.185c0.197-0.041,0.382-0.113,0.576-0.166c0.385-0.103,0.767-0.204,1.131-0.351
	c0.219-0.088,0.417-0.207,0.627-0.313c0.316-0.157,0.63-0.313,0.924-0.504c0.207-0.135,0.392-0.288,0.589-0.439
	c0.194-0.147,0.407-0.276,0.589-0.439c0.06,0.053,0.119,0.107,0.182,0.157c0.125,0.107,0.276,0.175,0.404,0.276
	c0.291,0.222,0.592,0.426,0.912,0.617c0.238,0.141,0.476,0.276,0.727,0.395c0.345,0.166,0.699,0.298,1.065,0.423
	c0.247,0.085,0.492,0.169,0.746,0.232c0.382,0.094,0.774,0.144,1.168,0.191c0.263,0.031,0.52,0.072,0.786,0.078
	c0.094,0.003,0.182,0.028,0.279,0.028c0.313,0,0.611-0.063,0.915-0.094c0.213-0.019,0.426,0,0.642-0.034
	c0.072-0.013,0.138-0.038,0.21-0.05c0.141-0.028,0.276-0.069,0.414-0.103c0.401-0.097,0.789-0.213,1.165-0.363
	c0.207-0.078,0.407-0.163,0.605-0.257c0.219-0.107,0.432-0.226,0.642-0.348c2.29-1.297,3.994-3.493,4.574-6.134
	c0.138,0.351,0.232,0.724,0.232,1.118v11.234l-4.43,4.43H54.115V68.541z M116.67,108.357c-1.992,1.707-3.026,4.282-2.766,6.895
	l5.473,54.73c0.066,0.68-0.251,1.143-0.448,1.36c-0.194,0.213-0.627,0.576-1.306,0.576H75.16c-0.677,0-1.109-0.36-1.303-0.576
	c-0.194-0.216-0.514-0.677-0.451-1.353l5.476-57.515c0.075-0.793-0.154-1.582-0.639-2.215l-8.778-11.353l-1.676-5.304h47.682
	c1.648,0,3.264-0.667,4.43-1.836l4.43-4.43c1.184-1.184,1.836-2.757,1.836-4.43V71.674c0-4.079-2.628-7.525-6.265-8.822v-9.971
	c6.369,0.11,11.96,3.982,14.297,9.93l1.178,2.96c0.122,0.247,0.188,0.52,0.188,0.789v23.348c0,1.432-0.623,2.785-1.707,3.718
	L116.67,108.357z M141.828,87.337V68.541h6.265v18.796H141.828z M173.155,118.663c0,1.726-1.403,3.133-3.133,3.133h-12.531
	c-1.729,0-3.133-1.407-3.133-3.133V90.469V65.408V37.215c0-1.726,1.403-3.133,3.133-3.133h12.531c1.729,0,3.133,1.407,3.133,3.133
	V56.01v43.857V118.663z M188.818,93.602c0,1.726-1.403,3.133-3.133,3.133h-6.265V59.143h6.265c1.729,0,3.133,1.407,3.133,3.133
	V93.602z" fill="#ffffff" stroke="#ffffff"/>
</svg>
