<?xml version="1.0" encoding="utf-8"?>
<!-- Generator: Adobe Illustrator 17.0.0, SVG Export Plug-In . SVG Version: 6.00 Build 0)  -->
<!DOCTYPE svg PUBLIC "-//W3C//DTD SVG 1.1//EN" "http://www.w3.org/Graphics/SVG/1.1/DTD/svg11.dtd">
<svg class="keyframe" version="1.1" id="Capa_1" xmlns="http://www.w3.org/2000/svg" xmlns:xlink="http://www.w3.org/1999/xlink" x="0px" y="0px"
	 width="200px" height="200px" viewBox="0 0 200 200" enable-background="new 0 0 200 200" xml:space="preserve">

	<style>
		.keyframe{
			animation: move 2s infinite alternate;
		}
		@keyframes move{
			from{
				transform: translate(0px, 10px);
			}
			to{
				transform: translate(0px, -20px);
			}
		}
		path {
			  stroke-dasharray: 2000;
			  stroke-dashoffset: 1000;
			  animation: dash 5s linear alternate infinite;
			  animation-fill-mode: forwards;
			}

		@keyframes dash {
		  from {
		    stroke-dashoffset: 2000;
		  }
		  to {
		    stroke-dashoffset: 0;
		    fill: #000000;
		    stroke: #000000;
		  }
		}
	</style>

<path fill="#ffffff" stroke="#ffffff" d="M190.066,83.55c-1.915-2.308-4.62-3.621-7.411-3.621h-4.198v-3.394c0-6.088-5.283-11.032-11.775-11.032h-5.54V59.25
	c0-2.947-1.251-5.817-3.437-7.877c-4.338-4.111-11.847-4.111-16.2,0c-2.182,2.059-3.437,4.93-3.437,7.877v29.331H63.05V59.25
	c0-2.947-1.252-5.817-3.437-7.877c-4.338-4.111-11.847-4.111-16.2,0c-2.185,2.059-3.437,4.93-3.437,7.877v6.254h-6.214
	c-2.914,0-5.662,1.057-7.761,2.961c-2.128,1.958-3.34,4.674-3.34,7.451v4.014h-4.155c-2.806,0-5.511,1.323-7.44,3.635
	c-1.832,2.185-2.831,5.071-2.831,8.115v16.893c0,3.04,0.999,5.915,2.831,8.115c1.929,2.308,4.634,3.632,7.44,3.632h4.155v4.003
	c0,2.788,1.212,5.507,3.34,7.465c2.099,1.901,4.847,2.957,7.761,2.957h6.214v6.257c0,2.943,1.252,5.803,3.437,7.873
	c2.168,2.045,5.042,3.184,8.1,3.184c3.058,0,5.933-1.14,8.1-3.184c2.186-2.07,3.437-4.944,3.437-7.873v-29.346h75.018v29.346
	c0,2.943,1.255,5.803,3.437,7.873c2.171,2.045,5.056,3.184,8.1,3.184c3.058,0,5.933-1.14,8.1-3.184
	c2.186-2.07,3.437-4.944,3.437-7.873v-6.257h5.54c6.492,0,11.775-4.959,11.775-11.043v-3.383h4.198c2.791,0,5.496-1.323,7.411-3.617
	c1.818-2.186,2.817-5.06,2.817-8.089v-16.99C192.883,88.607,191.884,85.736,190.066,83.55L190.066,83.55z M18.506,114.544
	c-1.1,0-2.171-0.548-3.001-1.551c-0.959-1.14-1.493-2.759-1.493-4.422V91.679c0-1.677,0.534-3.282,1.493-4.425
	c0.829-0.999,1.901-1.562,3.001-1.562h4.155v28.852H18.506z M33.762,128.97c-1.45,0-2.86-0.523-3.859-1.439
	c-0.945-0.873-1.464-2.012-1.464-3.21V75.915c0-1.183,0.519-2.326,1.464-3.199c1.013-0.916,2.409-1.45,3.859-1.45h6.214v57.704
	H33.762z M57.29,141.001c0,1.381-0.591,2.691-1.637,3.675c-2.167,2.045-6.113,2.045-8.28,0c-1.046-0.984-1.637-2.294-1.637-3.675
	V59.25c0-1.381,0.591-2.69,1.637-3.679c1.082-1.028,2.59-1.619,4.14-1.619s3.058,0.591,4.14,1.619
	c1.046,0.988,1.637,2.297,1.637,3.679V141.001z M63.05,105.892V94.355h75.018v11.537H63.05z M155.383,141.001
	c0,1.381-0.577,2.691-1.634,3.675c-2.171,2.045-6.117,2.045-8.27,0c-1.057-0.984-1.634-2.294-1.634-3.675V59.25
	c0-1.381,0.577-2.69,1.619-3.679c1.086-1.028,2.593-1.605,4.14-1.605c1.551,0,3.058,0.577,4.144,1.605
	c1.057,0.988,1.634,2.297,1.634,3.679V141.001z M172.697,123.701c0,2.918-2.705,5.269-6.016,5.269h-5.54V71.267h5.54
	c3.311,0,6.016,2.366,6.016,5.269V123.701z M187.123,108.612c0,1.663-0.552,3.257-1.493,4.396c-0.833,0.988-1.89,1.536-2.975,1.536
	h-4.198V85.693h4.198c1.086,0,2.142,0.548,2.975,1.551c0.941,1.125,1.493,2.73,1.493,4.378V108.612z M187.123,108.612"/>
</svg>
