<?xml version="1.0" encoding="utf-8"?>
<!-- Generator: Adobe Illustrator 17.0.0, SVG Export Plug-In . SVG Version: 6.00 Build 0)  -->
<!DOCTYPE svg PUBLIC "-//W3C//DTD SVG 1.1//EN" "http://www.w3.org/Graphics/SVG/1.1/DTD/svg11.dtd">
<svg class="keyframe" version="1.1" id="Capa_1" xmlns="http://www.w3.org/2000/svg" xmlns:xlink="http://www.w3.org/1999/xlink" x="0px" y="0px"
	 width="200px" height="200px" viewBox="0 -25 200 250" enable-background="new 0 0 200 200" xml:space="preserve">

	 <style>
		.keyframe{
			animation: move 2s infinite alternate;
		}
		@keyframes move{
			from{
				transform: translate(0px, 10px);
			}
			to{
				transform: translate(0px, -20px);
			}
		}
		path {
			  stroke-dasharray: 2000;
			  stroke-dashoffset: 1000;
			  animation: dash 5s linear alternate infinite;
			  animation-fill-mode: forwards;
			}

		@keyframes dash {
		  from {
		    stroke-dashoffset: 2000;
		  }
		  to {
		    stroke-dashoffset: 0;
		    fill: #000000;
		    stroke: #000000;
		  }
		}
	</style>

<g>
	<path fill="#ffffff" stroke="#ffffff" d="M98.999,29.653c-39.076,0-70.867,31.791-70.867,70.867c0,39.078,31.791,70.868,70.867,70.868
		c39.077,0,70.868-31.791,70.868-70.868C169.867,61.444,138.077,29.653,98.999,29.653L98.999,29.653z M98.999,156.308
		c-30.757,0-55.786-25.024-55.786-55.788c0-30.764,25.029-55.786,55.786-55.786c30.764,0,55.795,25.022,55.795,55.786
		C154.794,131.284,129.763,156.308,98.999,156.308L98.999,156.308z M98.999,156.308"/>
	<path fill="#ffffff" stroke="#ffffff" d="M135.932,98.333h-31.847V60.04c0-3.22-2.606-5.833-5.833-5.833c-3.218,0-5.833,2.613-5.833,5.833v44.127
		c0,3.228,2.615,5.835,5.833,5.835h37.681c3.228,0,5.841-2.608,5.841-5.835C141.773,100.948,139.16,98.333,135.932,98.333
		L135.932,98.333z M135.932,98.333"/>
</g>
</svg>
