<?xml version="1.0" encoding="iso-8859-1"?>
<!-- Generator: Adobe Illustrator 19.0.0, SVG Export Plug-In . SVG Version: 6.00 Build 0)  -->
<svg xmlns="http://www.w3.org/2000/svg" xmlns:xlink="http://www.w3.org/1999/xlink" version="1.1" id="Capa_1" x="0px" y="0px" viewBox="0 0 512 512" style="enable-background:new 0 0 512 512;" xml:space="preserve" width="512px" height="512px">
<g>
	<g>
		<path d="M467.68,66H44.32C19.882,66,0,85.882,0,110.32v291.36C0,426.118,19.882,446,44.32,446h423.36    c24.438,0,44.32-19.882,44.32-44.32V110.32C512,85.882,492.118,66,467.68,66z M492,401.68c0,13.41-10.91,24.32-24.32,24.32H44.32    C30.91,426,20,415.09,20,401.68V387h472V401.68z M492,367H20v-40h472V367z M492,307H20V110.32C20,96.91,30.91,86,44.32,86h423.36    C481.09,86,492,96.91,492,110.32V307z" fill="#FFFFFF"/>
	</g>
</g>
<g>
	<g>
		<path d="M457,110H357c-5.523,0-10,4.478-10,10v100c0,5.522,4.477,10,10,10h100c5.523,0,10-4.478,10-10V120    C467,114.478,462.523,110,457,110z M447,210h-80v-80h80V210z" fill="#FFFFFF"/>
	</g>
</g>
<g>
	<g>
		<path d="M280,110H83.175c-0.541,0-1.07,0.043-1.587,0.125C81.07,110.043,80.541,110,80,110c-5.523,0-10,4.478-10,10v60    c0,5.522,4.477,10,10,10h200c5.523,0,10-4.478,10-10v-60C290,114.478,285.523,110,280,110z M270,170H90v-40h180V170z" fill="#FFFFFF"/>
	</g>
</g>
<g>
	<g>
		<path d="M280,210h-56.82c-5.52,0-10,4.49-10,10s4.48,10,10,10H280c5.51,0,10-4.49,10-10S285.51,210,280,210z" fill="#FFFFFF"/>
	</g>
</g>
<g>
	<g>
		<path d="M143.18,210h-60c-5.52,0-10,4.49-10,10s4.48,10,10,10h60c5.51,0,9.99-4.49,9.99-10S148.69,210,143.18,210z" fill="#FFFFFF"/>
	</g>
</g>
<g>
	<g>
		<path d="M183.17,210c-5.51,0-10,4.49-10,10s4.49,10,10,10c5.52,0,10-4.49,10-10S188.69,210,183.17,210z" fill="#FFFFFF"/>
	</g>
</g>
<g>
	<g>
		<path d="M239.17,250h-156c-5.51,0-9.99,4.479-9.99,10c0,5.51,4.48,10,9.99,10h156c5.52,0,10-4.49,10-10    C249.17,254.479,244.69,250,239.17,250z" fill="#FFFFFF"/>
	</g>
</g>
<g>
	<g>
		<path d="M279.17,250c-5.51,0-10,4.479-10,10c0,5.51,4.49,10,10,10c5.52,0,10-4.49,10-10C289.17,254.479,284.69,250,279.17,250z" fill="#FFFFFF"/>
	</g>
</g>
<g>
</g>
<g>
</g>
<g>
</g>
<g>
</g>
<g>
</g>
<g>
</g>
<g>
</g>
<g>
</g>
<g>
</g>
<g>
</g>
<g>
</g>
<g>
</g>
<g>
</g>
<g>
</g>
<g>
</g>
</svg>
