<?xml version="1.0" encoding="iso-8859-1"?>
<!-- Generator: Adobe Illustrator 16.0.0, SVG Export Plug-In . SVG Version: 6.00 Build 0)  -->
<!DOCTYPE svg PUBLIC "-//W3C//DTD SVG 1.1//EN" "http://www.w3.org/Graphics/SVG/1.1/DTD/svg11.dtd">
<svg xmlns="http://www.w3.org/2000/svg" xmlns:xlink="http://www.w3.org/1999/xlink" version="1.1" id="Capa_1" x="0px" y="0px" width="512px" height="512px" viewBox="0 0 162.209 162.209" style="enable-background:new 0 0 162.209 162.209;" xml:space="preserve">
<g>
	<path d="M143.248,79.616c-9.968-4.128-19.284-3.261-26.458,2.281v-6.349c1.438,0.302,3.282,0.582,5.334,0.582   c3.344,0,6.297-0.713,8.781-2.113c7.344-4.159,9.39-13.801,9.469-14.206c0.322-1.522-0.542-3.041-2.004-3.559   c-0.146-0.058-3.812-1.343-8.257-1.343c-3.343,0-6.296,0.712-8.78,2.116c-1.827,1.035-3.325,2.405-4.543,3.891V53.67   c0-1.72-1.406-3.118-3.117-3.118c-1.729,0-3.118,1.397-3.118,3.118v28.232c-4.651-3.583-10.217-5.151-16.239-4.731V49.149   c0-3.873-2.539-9.283-13.774-13.648V15.677c0-18.398-66.768-18.398-66.768,0v19.811C4.898,38.935,0,43.73,0,49.149v92.202   c0,12.331,24.299,18.974,47.157,18.974c16.785,0,32.081-3.367,40.329-8.793c5.968,5.328,12.462,8.793,18.611,8.793   c2.052,0,4.019-0.383,5.834-1.139c0.584-0.243,1.156-0.523,1.741-0.877c0.572,0.354,1.15,0.634,1.711,0.877   c1.82,0.756,3.794,1.145,5.852,1.145l0,0c14.888,0,31.792-20.015,38.24-38.715C166.234,101.997,160.328,86.689,143.248,79.616z    M124.389,62.442c2.338-1.321,6.187-1.489,8.963-1.029c-0.925,2.351-2.654,5.55-5.511,7.167c-1.54,0.865-3.464,1.303-5.718,1.303   c-1.169,0-2.301-0.125-3.251-0.28C119.804,67.264,121.515,64.077,124.389,62.442z M20.003,38.225c0.085-0.417,0.091-0.84,0-1.278   V24.171c6.378,3.642,16.803,5.511,27.148,5.511c10.342,0,20.77-1.869,27.148-5.511v15.381c0,2.737-10.309,7.776-27.148,7.776   c-16.843,0-27.148-5.039-27.148-7.776V38.225z M47.151,7.889c16.839,0,27.148,5.039,27.148,7.782   c0,2.747-10.309,7.782-27.148,7.782c-16.843,0-27.148-5.035-27.148-7.782C20.003,12.928,30.309,7.889,47.151,7.889z M14.246,42.016   C16.97,49.6,32.123,53.564,47.151,53.564c15.037,0,30.202-3.97,32.909-11.561c5.824,2.563,8.014,5.282,8.014,7.14   c0,5.319-15.57,12.732-40.922,12.732c-25.355,0-40.922-7.414-40.922-12.732C6.229,46.86,9.289,44.223,14.246,42.016z M6.229,84.594   c8.111,5.626,23.002,8.774,37.805,9.17v35.622c-23.507-0.585-37.805-7.612-37.805-12.702V84.594z M6.229,141.338v-14.888   c8.683,6.028,25.139,9.201,40.922,9.201c1.72,0,3.118-1.407,3.118-3.118V90.683c0-1.724-1.397-3.117-3.118-3.117   c-25.355,0-40.922-7.42-40.922-12.739V58.931c8.683,6.02,25.139,9.192,40.922,9.192c15.78,0,32.236-3.172,40.922-9.192v19.306   c-1.325,0.381-2.658,0.822-4.004,1.386c-17.086,7.078-22.996,22.374-16.219,41.981c3.087,8.951,8.574,18.17,15.077,25.38   c-7.456,4.329-21.111,7.1-35.783,7.1C21.796,154.078,6.229,146.655,6.229,141.338z M153.581,119.564   c-6.947,20.137-25.38,38.161-35.822,33.85c-0.64-0.268-1.328-0.694-2.174-1.357c-0.561-0.444-1.242-0.664-1.925-0.664   c-0.682,0-1.363,0.231-1.924,0.664c-0.84,0.651-1.54,1.09-2.192,1.357c-10.314,4.299-28.853-13.713-35.807-33.85   c-7.225-20.916,2.926-30.129,12.72-34.179c10.142-4.204,18.728-2.191,24.671,6.09c0.036,0.055,0.104,0.072,0.14,0.121   c0.578,0.707,1.419,1.182,2.381,1.182c0.975,0,1.814-0.475,2.387-1.182c0.049-0.049,0.116-0.066,0.146-0.121   c5.931-8.275,14.522-10.282,24.667-6.09C150.646,89.429,160.791,98.648,153.581,119.564z" fill="#FFFFFF"/>
</g>
<g>
</g>
<g>
</g>
<g>
</g>
<g>
</g>
<g>
</g>
<g>
</g>
<g>
</g>
<g>
</g>
<g>
</g>
<g>
</g>
<g>
</g>
<g>
</g>
<g>
</g>
<g>
</g>
<g>
</g>
</svg>
