<?xml version="1.0" encoding="iso-8859-1"?>
<!-- Generator: Adobe Illustrator 19.0.0, SVG Export Plug-In . SVG Version: 6.00 Build 0)  -->
<svg xmlns="http://www.w3.org/2000/svg" xmlns:xlink="http://www.w3.org/1999/xlink" version="1.1" id="Capa_1" x="0px" y="0px" viewBox="0 0 480.856 480.856" style="enable-background:new 0 0 480.856 480.856;" xml:space="preserve" width="512px" height="512px">
<g>
	<g>
		<path d="M416.428,0c-10.134,0.042-19.15,6.445-22.528,16h-34.944C354.563,3.527,340.89-3.023,328.417,1.371    c-9.596,3.38-16.009,12.455-15.989,22.629v32c-0.035,13.219,10.652,23.965,23.872,24c3.124,0.008,6.22-0.595,9.112-1.776    L330.476,128h-34.048c-1.084-0.003-2.157,0.217-3.152,0.648l-52.848,22.648l-52.848-22.648c-0.995-0.431-2.068-0.651-3.152-0.648    H150.38l-14.936-49.776c12.239,4.997,26.211-0.873,31.208-13.112c1.181-2.892,1.784-5.988,1.776-9.112V24    c0.025-13.224-10.675-23.964-23.899-23.989C134.355-0.009,125.28,6.404,121.9,16H86.956C82.563,3.527,68.89-3.023,56.417,1.371    C46.821,4.751,40.409,13.826,40.428,24v32C40.369,69.197,51.02,79.943,64.217,80.002c7.065,0.032,13.782-3.065,18.347-8.458    l12.456,87.2c1.352,9.48,8.209,17.25,17.448,19.768l72.688,19.824l7.136,57.12L142.908,438.88    c-4.572,17.019,4.892,34.656,21.6,40.256c17.45,5.813,36.309-3.62,42.123-21.071c0.194-0.582,0.372-1.169,0.533-1.761    L240.428,334.4l33.24,121.896c3.958,14.463,17.077,24.509,32.072,24.56c18.42-0.005,33.348-14.942,33.342-33.362    c-0.001-2.909-0.382-5.805-1.134-8.614l-49.384-183.448l7.136-57.12l72.728-19.824c9.233-2.52,16.087-10.285,17.44-19.76    l12.456-87.2c8.547,10.056,23.627,11.28,33.683,2.733c5.356-4.552,8.436-11.232,8.421-18.261V24    C440.428,10.745,429.683,0,416.428,0z M344.428,56c0,4.418-3.582,8-8,8s-8-3.582-8-8V24c0-4.418,3.582-8,8-8s8,3.582,8,8V56z     M136.428,24c0-4.418,3.582-8,8-8s8,3.582,8,8v32c0,4.418-3.582,8-8,8s-8-3.582-8-8V24z M72.428,56c0,4.418-3.582,8-8,8    s-8-3.582-8-8V24c0-4.418,3.582-8,8-8s8,3.582,8,8V56z M88.428,48V32h32v16H88.428z M370.028,156.472    c-0.453,3.151-2.731,5.733-5.8,6.576l-77.864,21.232c-3.128,0.854-5.431,3.511-5.832,6.728l-8,64    c-0.13,1.028-0.06,2.071,0.208,3.072l49.8,184.968c2.499,9.221-2.951,18.721-12.172,21.22s-18.721-2.951-21.22-12.172    l-40.96-150.2c-1.159-4.264-5.554-6.781-9.818-5.622c-2.739,0.744-4.878,2.883-5.622,5.622l-40.96,150.2    c-2.501,9.221-12.003,14.669-21.224,12.168s-14.669-12.003-12.168-21.224l49.8-184.96c0.268-1.001,0.338-2.044,0.208-3.072l-8-64    c-0.401-3.217-2.704-5.874-5.832-6.728l-77.856-21.232c-3.075-0.841-5.357-3.428-5.808-6.584L97.652,64h16.8l22.288,74.296    c1.017,3.394,4.145,5.715,7.688,5.704h38.4l54.488,23.352c2.013,0.863,4.291,0.863,6.304,0L298.068,144h38.36    c3.534,0,6.65-2.319,7.664-5.704L366.38,64h16.8L370.028,156.472z M392.428,48h-32V32h32V48z M424.428,56c0,4.418-3.582,8-8,8    s-8-3.582-8-8V24c0-4.418,3.582-8,8-8s8,3.582,8,8V56z" fill="#FFFFFF"/>
	</g>
</g>
<g>
	<g>
		<path d="M272.428,48h-36c-24.247-0.061-43.953,19.546-44.015,43.793c-0.012,4.925,0.804,9.817,2.415,14.471l-0.056,0.072    l0.16,0.168c8.08,22.918,33.209,34.946,56.127,26.865c17.555-6.189,29.315-22.755,29.369-41.369V56    C280.428,51.582,276.846,48,272.428,48z M264.428,92c0,15.464-12.536,28-28,28c-8.458-0.031-16.444-3.905-21.704-10.528    c13.939-12.079,31.331-19.456,49.704-21.08V92z M264.428,72.392c-20.311,1.497-39.729,8.958-55.816,21.448    c0-0.616-0.184-1.208-0.184-1.84c0-15.464,12.536-28,28-28h28V72.392z" fill="#FFFFFF"/>
	</g>
</g>
<g>
</g>
<g>
</g>
<g>
</g>
<g>
</g>
<g>
</g>
<g>
</g>
<g>
</g>
<g>
</g>
<g>
</g>
<g>
</g>
<g>
</g>
<g>
</g>
<g>
</g>
<g>
</g>
<g>
</g>
</svg>
